<?xml version="1.0" standalone="no"?>
<!DOCTYPE svg PUBLIC "-//W3C//DTD SVG 20010904//EN"
 "http://www.w3.org/TR/2001/REC-SVG-20010904/DTD/svg10.dtd">
<svg version="1.0" xmlns="http://www.w3.org/2000/svg"
 width="1280.000000pt" height="320.000000pt" viewBox="0 0 1280.000000 320.000000"
 preserveAspectRatio="xMidYMid meet">

<g transform="translate(0.000000,320.000000) scale(0.100000,-0.100000)"
fill="#ffffff" stroke="none">
<path d="M4361 2294 c-158 -42 -275 -162 -337 -344 -16 -45 -19 -83 -18 -210
0 -145 2 -160 29 -230 87 -234 267 -357 489 -335 84 8 159 35 217 77 l43 31
-51 25 -52 25 -62 -27 c-75 -34 -175 -39 -257 -12 -57 19 -152 98 -178 148
l-15 29 28 -8 c55 -15 128 -6 201 26 41 18 87 31 112 31 38 0 48 -6 120 -75
44 -41 99 -84 124 -95 139 -59 317 -48 480 30 34 16 120 66 191 110 244 154
347 194 495 193 62 0 110 -6 139 -17 65 -24 61 -13 -6 17 -170 76 -320 52
-605 -97 -79 -41 -186 -90 -238 -107 -86 -30 -106 -33 -210 -33 -130 0 -196
19 -272 77 -87 66 -99 128 -49 256 17 44 31 97 31 118 0 68 -67 168 -100 148
-5 -3 -10 -18 -10 -33 0 -33 -24 -73 -80 -132 -48 -51 -70 -96 -70 -140 0 -28
-2 -30 -39 -30 -44 0 -99 -33 -147 -89 -37 -43 -95 -77 -117 -68 -38 14 -47
260 -13 368 36 115 105 203 196 251 38 20 60 23 145 23 89 0 105 -3 150 -27
100 -53 181 -170 205 -297 13 -70 13 -194 -1 -262 -6 -30 -11 -61 -12 -69 -2
-18 78 -49 92 -35 23 23 42 134 42 240 0 127 -15 197 -67 303 -96 198 -317
302 -523 246z m304 -349 c20 -51 17 -68 -27 -175 -25 -62 -29 -83 -25 -128 l6
-53 -45 26 c-24 14 -44 24 -44 22 0 -3 12 -25 26 -51 l26 -46 -29 11 c-37 14
-92 4 -174 -31 -74 -33 -152 -40 -184 -16 -18 13 -17 14 11 29 16 8 49 36 74
62 62 64 112 89 167 82 l44 -5 -6 38 c-9 51 11 95 75 165 28 31 56 70 62 86
14 40 24 36 43 -16z"/>
<path d="M6213 2069 c-114 -14 -227 -87 -292 -187 -17 -27 -34 -62 -37 -79 -6
-30 -5 -31 42 -38 41 -6 50 -4 59 10 62 107 125 163 208 186 94 25 236 -3 300
-59 16 -15 20 -13 50 16 37 38 33 51 -29 94 -68 46 -195 71 -301 57z"/>
<path d="M7020 2066 c-83 -18 -129 -44 -196 -111 -70 -70 -108 -142 -125 -239
-30 -176 41 -375 166 -465 83 -60 130 -75 235 -75 88 -1 100 1 163 32 44 22
80 49 105 78 l37 45 5 -68 5 -68 50 0 50 0 3 244 c1 135 -2 269 -8 299 -31
169 -161 301 -324 331 -72 13 -95 13 -166 -3z m210 -117 c151 -68 220 -269
159 -465 -27 -88 -107 -172 -184 -194 -152 -44 -293 18 -362 158 -35 72 -45
217 -19 304 27 93 100 174 183 204 59 21 170 17 223 -7z"/>
<path d="M5484 2046 c-27 -13 -66 -42 -87 -66 l-36 -42 -3 58 -3 59 -50 0 -50
0 -3 -252 c-1 -143 2 -253 7 -253 4 0 29 9 55 20 l46 21 0 88 c0 50 7 110 16
140 31 104 130 163 248 146 28 -4 59 -8 69 -8 12 -1 24 12 37 41 l20 43 -35
15 c-56 23 -171 18 -231 -10z"/>
<path d="M5854 1625 c-12 -31 15 -150 51 -222 117 -237 445 -307 650 -138 l29
24 -20 27 c-35 47 -47 50 -86 21 -50 -39 -114 -59 -188 -59 -172 -2 -294 106
-324 285 l-12 72 -47 3 c-36 2 -49 -1 -53 -13z"/>
<path d="M5298 1358 l-48 -30 0 -69 0 -70 53 3 52 3 3 98 c1 53 -1 97 -5 96
-4 0 -29 -14 -55 -31z"/>
</g>
</svg>
